:FULLY-SPECIFIED
:FORCE-ALL-JOINTS-BE-3DOF
:DEGREES
1
root -2.95645 16.8291 -36.2757 3.79203 -0.409345 -2.77144
lfemur -18.1857 -3.85478 -7.37129
ltibia 37.6337 0 0
lfoot -17.8071 6.78532 0
ltoes -26.1578 0 0
rfemur -19.1521 0.15077 14.7318
rtibia 40.3652 0 0
rfoot -23.1652 -2.86285 0
rtoes -21.0274 0 0
lowerback 7.02591 2.55716 -1.97249
upperback -3.14202 3.31583 1.27229
thorax -7.43554 1.75645 1.99661
lowerneck -4.68188 -4.04088 -6.84108
upperneck 4.69893 -5.30737 6.47589
head 2.76948 -2.5844 3.14763
lclavicle 1.91563e-15 -9.24349e-15 0
lhumerus -27.0689 -5.33108 89.6453
lradius 25.7364 0 0
lwrist -30.6252 0 0
lhand -28.8405 29.9909 0
lfingers 7.12502 0 0
lthumb -2.19771 59.9594 0
rclavicle 1.91563e-15 -9.24349e-15 0
rhumerus -32.8355 4.71181 -81.727
rradius 32.9783 0 0
rwrist 3.84135 0 0
rhand -24.1523 -25.0894 0
rfingers 7.12502 0 0
rthumb 2.33029 -55.0564 0
2
root -2.95647 16.8281 -36.2789 3.83496 -0.515041 -2.77044
lfemur -18.1814 -3.83503 -7.37474
ltibia 37.6374 0 0
lfoot -17.8099 6.78166 0
ltoes -26.1339 0 0
rfemur -19.1513 0.140991 14.7312
rtibia 40.3719 0 0
rfoot -23.1653 -2.85288 0
rtoes -21.0005 0 0
lowerback 7.0168 2.56529 -1.92512
upperback -3.13081 3.33086 1.26317
thorax -7.41553 1.76102 1.95907
lowerneck -4.72931 -3.99134 -6.7546
upperneck 4.68931 -5.23907 6.40124
head 2.76328 -2.55005 3.10787
lclavicle 1.8607e-15 -9.24077e-15 0
lhumerus -27.0676 -5.33096 89.6473
lradius 25.7379 0 0
lwrist -30.6231 0 0
lhand -28.8408 29.9907 0
lfingers 7.12502 0 0
lthumb -2.19784 59.9593 0
rclavicle 1.89871e-15 -9.22198e-15 0
rhumerus -32.834 4.70812 -81.7243
rradius 32.9726 0 0
rwrist 3.84075 0 0
rhand -24.1475 -25.0949 0
rfingers 7.12502 0 0
rthumb 2.3344 -55.0609 0
3
root -2.95654 16.8272 -36.2808 3.87536 -0.609706 -2.74215
lfemur -18.1688 -3.77759 -7.38476
ltibia 37.6482 0 0
lfoot -17.8181 6.77097 0
ltoes -26.0642 0 0
rfemur -19.149 0.112573 14.7296
rtibia 40.3915 0 0
rfoot -23.1655 -2.82365 0
rtoes -20.9216 0 0
lowerback 6.97964 2.56886 -1.91256
upperback -3.12187 3.33669 1.25357
thorax -7.38337 1.76276 1.94295
lowerneck -4.65596 -3.96919 -6.78933
upperneck 4.65659 -5.21207 6.43618
head 2.73923 -2.5375 3.12874
lclavicle 1.70042e-15 -9.23285e-15 0
lhumerus -27.0639 -5.33062 89.6532
lradius 25.7424 0 0
lwrist -30.617 0 0
lhand -28.8418 29.99 0
lfingers 7.12502 0 0
lthumb -2.19821 59.9591 0
rclavicle 1.84921e-15 -9.15903e-15 0
rhumerus -32.8294 4.69733 -81.7163
rradius 32.956 0 0
rwrist 3.839 0 0
rhand -24.1334 -25.1109 0
rfingers 7.12502 0 0
rthumb 2.34639 -55.0738 0
4
root -2.95608 16.8264 -36.2839 3.91591 -0.691332 -2.68194
lfemur -18.1485 -3.68515 -7.4009
ltibia 37.6656 0 0
lfoot -17.8314 6.7537 0
ltoes -25.9521 0 0
rfemur -19.1452 0.0668972 14.7269
rtibia 40.4231 0 0
rfoot -23.1659 -2.77622 0
rtoes -20.7935 0 0
lowerback 6.97732 2.56488 -1.92358
upperback -3.12468 3.32854 1.22857
thorax -7.38364 1.75861 1.92401
lowerneck -4.67577 -3.93993 -6.77722
upperneck 4.69449 -5.17403 6.43694
head 2.75249 -2.51803 3.12843
lclavicle 1.44161e-15 -9.22005e-15 0
lhumerus -27.0578 -5.33006 89.6627
lradius 25.7497 0 0
lwrist -30.6071 0 0
lhand -28.8433 29.9888 0
lfingers 7.12502 0 0
lthumb -2.19882 59.9586 0
rclavicle 1.76897e-15 -9.05702e-15 0
rhumerus -32.8221 4.67986 -81.7034
rradius 32.9292 0 0
rwrist 3.83619 0 0
rhand -24.1108 -25.1366 0
rfingers 7.12502 0 0
rthumb 2.36575 -55.0948 0
5
root -2.9567 16.8246 -36.2864 3.93099 -0.778759 -2.70931
lfemur -18.1211 -3.56039 -7.42268
ltibia 37.6892 0 0
lfoot -17.8493 6.73028 0
ltoes -25.8008 0 0
rfemur -19.1401 0.00534444 14.7234
rtibia 40.4656 0 0
rfoot -23.1664 -2.71161 0
rtoes -20.6191 0 0
lowerback 6.9958 2.57611 -1.85729
upperback -3.12063 3.34971 1.22615
thorax -7.38683 1.76566 1.88076
lowerneck -4.69782 -3.92264 -6.7611
upperneck 4.7339 -5.15184 6.43111
head 2.76744 -2.50652 3.12428
lclavicle 1.09105e-15 -9.20272e-15 0
lhumerus -27.0496 -5.32931 89.6757
lradius 25.7594 0 0
lwrist -30.5935 0 0
lhand -28.8453 29.9873 0
lfingers 7.12502 0 0
lthumb -2.19964 59.9581 0
rclavicle 1.65987e-15 -8.9183e-15 0
rhumerus -32.8121 4.65612 -81.6859
rradius 32.8929 0 0
rwrist 3.83239 0 0
rhand -24.0804 -25.1712 0
rfingers 7.12502 0 0
rthumb 2.39198 -55.1232 0
6
root -2.95737 16.8243 -36.2883 3.94289 -0.854282 -2.6876
lfemur -18.0873 -3.40601 -7.44963
ltibia 37.7186 0 0
lfoot -17.8717 6.70115 0
ltoes -25.6135 0 0
rfemur -19.1339 -0.0707048 14.719
rtibia 40.5183 0 0
rfoot -23.167 -2.63087 0
rtoes -20.4011 0 0
lowerback 7.0144 2.57229 -1.86316
upperback -3.11534 3.34403 1.2309
thorax -7.3923 1.76323 1.88914
lowerneck -4.57641 -3.94245 -6.84362
upperneck 4.6996 -5.18225 6.49127
head 2.74109 -2.52356 3.16083
lclavicle 6.55538e-16 -9.18118e-15 0
lhumerus -27.0393 -5.32837 89.6918
lradius 25.7714 0 0
lwrist -30.5767 0 0
lhand -28.8479 29.9854 0
lfingers 7.12502 0 0
lthumb -2.20067 59.9574 0
rclavicle 1.52376e-15 -8.74524e-15 0
rhumerus -32.7997 4.62653 -81.664
rradius 32.8477 0 0
rwrist 3.82768 0 0
rhand -24.0428 -25.214 0
rfingers 7.12502 0 0
rthumb 2.42456 -55.1585 0
